<svg width="19" height="19" viewBox="0 0 19 19" fill="none" xmlns="http://www.w3.org/2000/svg">
<path d="M16.1604 17.997V16.1604H12.4872V14.3237H16.1604V12.4871L18.9153 15.2421L16.1604 17.997ZM9.73225 15.2421C9.73225 13.2218 10.8342 11.477 12.4872 10.4669C12.3953 10.0077 12.028 9.73222 11.5689 9.73222H6.05903V7.89561H7.89564C8.44662 7.89561 8.81394 7.52829 8.81394 6.9773V5.14069H10.6506C11.6607 5.14069 12.4872 4.31422 12.4872 3.30408V2.93676C15.1503 4.03872 17.0787 6.60998 17.0787 9.73222V10.0077C17.7215 10.1914 18.2725 10.5587 18.8235 11.0178C18.9153 10.6505 18.9153 10.1914 18.9153 9.73222C18.9153 4.68154 14.7829 0.549164 9.73225 0.549164C4.68157 0.549164 0.549194 4.68154 0.549194 9.73222C0.549194 14.7829 4.68157 18.9153 9.73225 18.9153C10.1914 18.9153 10.6506 18.9153 11.0179 18.8234C10.1914 17.8133 9.73225 16.6195 9.73225 15.2421ZM8.81394 16.9868C5.14072 16.5277 2.38581 13.4973 2.38581 9.73222C2.38581 9.18124 2.47764 8.63025 2.56947 8.07927L6.97733 12.4871V13.4054C6.97733 14.4156 7.80381 15.2421 8.81394 15.2421V16.9868Z" fill="white"/>
</svg>
