<svg width="23" height="23" viewBox="0 0 23 23" fill="none" xmlns="http://www.w3.org/2000/svg">
<path d="M11.2033 1.1019L2.93854 4.77512V10.285C2.93854 15.3815 6.46483 20.1476 11.2033 21.3046C15.9417 20.1476 19.468 15.3815 19.468 10.285V4.77512L11.2033 1.1019ZM11.2033 4.77512C11.9339 4.77512 12.6347 5.06537 13.1513 5.58202C13.668 6.09866 13.9582 6.79939 13.9582 7.53004C13.9582 8.26069 13.668 8.96141 13.1513 9.47806C12.6347 9.99471 11.9339 10.285 11.2033 10.285C10.4726 10.285 9.77191 9.99471 9.25527 9.47806C8.73862 8.96141 8.44837 8.26069 8.44837 7.53004C8.44837 6.79939 8.73862 6.09866 9.25527 5.58202C9.77191 5.06537 10.4726 4.77512 11.2033 4.77512ZM15.9142 15.7948C14.803 17.4937 13.1409 18.7701 11.2033 19.3945C9.26566 18.7701 7.60353 17.4937 6.49238 15.7948C6.18016 15.3356 5.91385 14.8765 5.69345 14.3898C5.69345 12.8746 8.18206 11.6349 11.2033 11.6349C14.2245 11.6349 16.7131 12.847 16.7131 14.3898C16.4927 14.8765 16.2264 15.3356 15.9142 15.7948Z" fill="white"/>
</svg>
